<?xml version="1.0" encoding="UTF-8"?>
<svg width="91px" height="86px" viewBox="0 0 91 86" version="1.1" xmlns="http://www.w3.org/2000/svg" xmlns:xlink="http://www.w3.org/1999/xlink">
    <!-- Generator: Sketch 51.2 (57519) - http://www.bohemiancoding.com/sketch -->
    <title>humanity-logo</title>
    <defs></defs>
    <g id="Page-1" stroke="none" stroke-width="1" fill="none" fill-rule="evenodd">
        <g id="humanity-logo" fill="#8787F2" fill-rule="nonzero">
            <path d="M62.6,85.3 C56.4,85.3 50.5,83.2 45.7,79.6 C40.9,83.2 35,85.3 28.8,85.3 C13.3,85.3 0.8,72.7 0.8,57.3 C0.8,45.7 7.9,35.7 17.9,31.5 C17.8,30.4 17.7,29.2 17.7,28 C17.7,12.5 30.3,0 45.7,0 C61.2,0 73.7,12.6 73.7,28 C73.7,29.2 73.6,30.3 73.5,31.5 C83.5,35.8 90.6,45.7 90.6,57.3 C90.6,72.7 78,85.3 62.6,85.3 Z M51.5,73.6 C54.7,75.8 58.6,77 62.6,77 C73.5,77 82.4,68.1 82.4,57.2 C82.4,49.4 77.9,42.6 71.3,39.4 C70.9,40.3 70.5,41.1 70,41.9 L53.1,71.2 C52.6,72.1 52.1,72.9 51.5,73.6 Z M20.1,39.5 C13.5,42.7 9,49.5 9,57.3 C9,68.2 17.9,77.1 28.8,77.1 C32.8,77.1 36.6,75.9 39.9,73.7 C39.4,72.9 38.8,72.2 38.4,71.3 L21.4,42 C20.9,41.2 20.5,40.3 20.1,39.5 Z M28.3,37.5 C28.4,37.6 28.4,37.8 28.5,37.9 L45.4,67.2 C45.5,67.3 45.5,67.5 45.6,67.6 C45.7,67.5 45.7,67.4 45.8,67.2 L62.7,37.9 C62.8,37.8 62.8,37.6 62.9,37.5 C62.8,37.5 62.6,37.5 62.5,37.5 L28.7,37.5 C28.6,37.5 28.5,37.5 28.3,37.5 Z M28.8,29.2 L62.6,29.2 C63.6,29.2 64.5,29.2 65.4,29.3 C65.4,28.8 65.4,28.4 65.4,27.9 C65.4,17 56.5,8.1 45.6,8.1 C34.7,8.1 25.8,17 25.8,27.9 C25.8,28.4 25.8,28.8 25.8,29.3 C26.9,29.3 27.8,29.2 28.8,29.2 Z" id="XMLID_295_"></path>
        </g>
    </g>
</svg>